<?xml version="1.0" encoding="UTF-8" standalone="no"?>
<svg
   height="512"
   id="svg4"
   inkscape:version="1.2.2 (732a01da63, 2022-12-09)"
   sodipodi:docname="get-outside.svg"
   version="1.1"
   viewBox="0 0 47.985005 47.985005"
   width="512"
   xmlns:inkscape="http://www.inkscape.org/namespaces/inkscape"
   xmlns:sodipodi="http://sodipodi.sourceforge.net/DTD/sodipodi-0.dtd"
   xmlns:xlink="http://www.w3.org/1999/xlink"
   xmlns="http://www.w3.org/2000/svg"
   xmlns:svg="http://www.w3.org/2000/svg">
  <defs
     id="defs8">
    <linearGradient
       id="linearGradient9405"
       inkscape:collect="always">
      <stop
         id="stop9401"
         offset="0"
         style="stop-color:#000000;stop-opacity:1;" />
      <stop
         id="stop9403"
         offset="1"
         style="stop-color:#0000ff;stop-opacity:1;" />
    </linearGradient>
    <linearGradient
       id="linearGradient2432"
       inkscape:collect="always">
      <stop
         id="stop2428"
         offset="0"
         style="stop-color:#00003a;stop-opacity:1;" />
      <stop
         id="stop2430"
         offset="1"
         style="stop-color:#0000ff;stop-opacity:1;" />
    </linearGradient>
    <linearGradient
       gradientTransform="matrix(0.9844511,0,0,0.9844511,0.37305845,0.37305517)"
       gradientUnits="userSpaceOnUse"
       id="linearGradient9407"
       inkscape:collect="always"
       x1="24.171551"
       x2="24.171551"
       xlink:href="#linearGradient9405"
       y1="76.830818"
       y2="0.26858225">
      <stop
         id="stop3160"
         offset="0"
         style="stop-color:#000036;stop-opacity:1;" />
      <stop
         id="stop3162"
         offset="1"
         style="stop-color:#0081ff;stop-opacity:1;" />
    </linearGradient>
    <linearGradient
       gradientTransform="matrix(0.87618787,0,0,0.87618787,2.9744399,2.9714911)"
       gradientUnits="userSpaceOnUse"
       id="linearGradient10887"
       inkscape:collect="always"
       x1="38.744568"
       x2="13.248431"
       xlink:href="#linearGradient2432"
       y1="45.188393"
       y2="5.4993048">
      <stop
         id="stop3165"
         offset="0"
         style="stop-color:#000069;stop-opacity:1;" />
      <stop
         id="stop3167"
         offset="1"
         style="stop-color:#00a3ff;stop-opacity:1;" />
    </linearGradient>
  </defs>
  <sodipodi:namedview
     bordercolor="#000000"
     borderopacity="0.25"
     id="namedview6"
     inkscape:current-layer="svg4"
     inkscape:cx="-128.86122"
     inkscape:cy="314.9941"
     inkscape:deskcolor="#d1d1d1"
     inkscape:pagecheckerboard="0"
     inkscape:pageopacity="0.0"
     inkscape:showpageshadow="2"
     inkscape:window-height="991"
     inkscape:window-maximized="1"
     inkscape:window-width="1920"
     inkscape:window-x="-9"
     inkscape:window-y="-9"
     inkscape:zoom="0.9777961"
     pagecolor="#ffffff"
     showgrid="false" />
  <path
     d="m 24.004175,13.527737 q -1.236875,0 -2.12331,-0.886432 -0.886431,-0.886435 -0.886431,-2.123317 0,-1.2368824 0.886431,-2.1233143 0.886435,-0.886432 2.12331,-0.886432 1.236883,0 2.123321,0.886432 0.886428,0.8864319 0.886428,2.1233143 0,1.236882 -0.886428,2.123317 -0.886438,0.886432 -2.123321,0.886432 z m 13.605701,3.751873 q -2.143925,0.453524 -4.432155,0.742126 -2.288236,0.288607 -4.761999,0.494755 v 20.779611 q 0,0.494753 -0.350447,0.845208 -0.350449,0.350447 -0.886433,0.350447 -0.535986,0 -0.88643,-0.350447 -0.350457,-0.350455 -0.350457,-0.886432 v -9.482766 h -3.875558 v 9.52399 q 0,0.494753 -0.350455,0.845208 -0.350446,0.350447 -0.886426,0.350447 -0.535983,0 -0.886433,-0.350447 -0.350451,-0.350455 -0.350451,-0.886432 V 18.516491 Q 17.118865,18.310343 14.830635,18.021736 12.542407,17.733134 10.398477,17.27961 9.9037239,17.155921 9.6357331,16.723011 9.3677424,16.2901 9.4914304,15.754118 q 0.1236887,-0.494751 0.5565966,-0.783357 0.432908,-0.288604 0.968891,-0.164921 3.174662,0.700902 6.349331,0.968898 3.174655,0.267987 6.637926,0.267987 3.463274,0 6.637933,-0.267987 3.174664,-0.267996 6.34933,-0.968898 0.535979,-0.123683 0.989504,0.144305 0.453521,0.267993 0.577212,0.803973 0.12369,0.494756 -0.16492,0.948274 -0.288598,0.453529 -0.783358,0.577218 z"
     id="path2"
     style="opacity:1;fill:url(#linearGradient10887);fill-opacity:1;stroke-width:0;stroke-dasharray:none"
     inkscape:label="middle" />
  <ellipse
     cx="23.992504"
     cy="23.99251"
     id="path267"
     rx="22.516289"
     ry="22.516296"
     style="fill:none;stroke:url(#linearGradient9407);stroke-width:2.95243;stroke-linecap:butt;stroke-miterlimit:1;stroke-dasharray:none;stroke-opacity:1;paint-order:normal"
     inkscape:label="outer_circle" />
</svg>
