<?xml version="1.0" encoding="UTF-8" standalone="no"?>
<!DOCTYPE svg PUBLIC "-//W3C//DTD SVG 20010904//EN"
              "http://www.w3.org/TR/2001/REC-SVG-20010904/DTD/svg10.dtd">

<svg xmlns="http://www.w3.org/2000/svg"
     width="241.039mm" height="241.039mm"
     viewBox="0 0 854 854">
  <path id="Selection"
        fill="white" stroke="black" stroke-width="0"
        d="M 402.00,0.21
           C 402.00,0.21 444.00,0.21 444.00,0.21
             444.00,0.21 457.00,0.96 457.00,0.96
             502.02,2.92 547.16,13.07 589.00,29.80
             634.41,47.96 683.63,77.21 719.00,111.04
             764.47,154.53 796.88,200.11 821.57,258.00
             839.82,300.78 851.01,348.55 853.04,395.00
             853.04,395.00 854.00,408.00 854.00,408.00
             854.00,408.00 854.00,442.00 854.00,442.00
             854.00,442.00 853.09,454.00 853.09,454.00
             851.80,472.87 849.88,491.35 846.39,510.00
             832.05,586.48 794.95,659.39 742.83,717.00
             712.82,750.17 673.33,780.37 634.00,801.69
             589.24,825.96 543.45,842.09 493.00,849.57
             465.13,853.70 437.13,854.33 409.00,854.00
             409.00,854.00 398.00,853.04 398.00,853.04
             359.04,851.34 319.66,843.45 283.00,830.05
             218.33,806.42 157.56,768.28 111.17,717.00
             56.26,656.31 19.29,580.77 5.92,500.00
             5.92,500.00 0.91,454.00 0.91,454.00
             0.91,454.00 0.00,443.00 0.00,443.00
             0.00,443.00 0.00,408.00 0.00,408.00
             0.00,408.00 0.96,395.00 0.96,395.00
             3.17,344.42 16.19,293.00 37.31,247.00
             78.48,157.33 143.68,88.91 232.00,44.75
             249.77,35.87 268.11,27.89 287.00,21.67
             313.55,12.93 341.27,6.74 369.00,3.28
             369.00,3.28 390.00,1.09 390.00,1.09
             390.00,1.09 402.00,0.21 402.00,0.21 Z
           M 530.00,264.00
           C 528.02,249.36 519.36,222.24 514.05,208.00
             514.05,208.00 496.31,167.00 496.31,167.00
             493.16,159.95 492.37,157.13 487.27,148.18
             487.27,148.18 476.04,130.00 476.04,130.00
             476.04,130.00 461.57,108.00 461.57,108.00
             453.51,96.72 445.15,85.38 435.95,75.00
             432.97,71.64 429.12,65.07 424.00,67.79
             421.71,69.01 416.11,74.89 414.00,77.00
             406.20,84.81 400.01,92.04 393.58,101.00
             385.61,112.10 368.92,139.38 363.27,151.45
             363.27,151.45 344.00,204.00 344.00,204.00
             344.00,204.00 330.58,247.00 330.58,247.00
             329.53,250.66 327.49,261.09 324.58,262.97
             322.00,264.65 310.52,262.57 307.00,262.15
             307.00,262.15 288.36,259.82 288.36,259.82
             288.36,259.82 261.00,257.00 261.00,257.00
             261.00,257.00 269.15,224.00 269.15,224.00
             275.04,202.24 282.10,180.88 290.60,160.00
             298.29,141.13 308.38,120.73 318.42,103.00
             318.42,103.00 334.00,77.00 334.00,77.00
             313.83,81.07 285.86,92.06 267.00,100.69
             193.73,134.24 133.90,194.46 99.00,267.00
             99.00,267.00 149.00,267.00 149.00,267.00
             147.84,272.79 147.08,273.80 147.00,280.00
             147.00,280.00 147.00,284.00 147.00,284.00
             147.16,297.51 154.81,309.85 167.00,315.87
             173.40,319.02 182.87,320.11 190.00,321.46
             190.00,321.46 199.00,323.54 199.00,323.54
             199.00,323.54 222.27,327.36 222.27,327.36
             234.00,328.99 235.79,328.62 243.00,331.00
             243.00,331.00 86.00,331.00 86.00,331.00
             83.47,331.01 79.74,330.63 77.85,332.60
             76.17,334.35 74.78,341.38 74.13,344.00
             74.13,344.00 67.75,375.00 67.75,375.00
             63.28,402.64 64.17,452.13 68.27,480.00
             68.27,480.00 72.88,504.00 72.88,504.00
             72.88,504.00 77.00,521.00 77.00,521.00
             77.00,521.00 246.00,521.00 246.00,521.00
             246.00,521.00 244.17,502.00 244.17,502.00
             244.17,502.00 243.00,478.00 243.00,478.00
             243.00,478.00 242.00,461.00 242.00,461.00
             242.00,461.00 242.00,399.00 242.00,399.00
             242.00,399.00 243.00,378.00 243.00,378.00
             243.00,378.00 245.28,348.00 245.28,348.00
             245.28,348.00 247.00,331.00 247.00,331.00
             247.00,331.00 261.00,333.06 261.00,333.06
             261.00,333.06 272.88,334.38 272.88,334.38
             272.88,334.38 286.00,336.00 286.00,336.00
             286.00,336.00 298.38,337.12 298.38,337.12
             298.38,337.12 312.00,338.00 312.00,338.00
             312.00,338.00 309.17,367.00 309.17,367.00
             309.17,367.00 308.00,389.00 308.00,389.00
             308.00,389.00 307.00,405.00 307.00,405.00
             307.00,405.00 307.00,446.00 307.00,446.00
             307.00,446.00 308.00,461.00 308.00,461.00
             308.00,461.00 310.17,495.00 310.17,495.00
             310.17,495.00 313.00,521.00 313.00,521.00
             313.00,521.00 332.00,521.00 332.00,521.00
             332.00,521.00 332.00,586.00 332.00,586.00
             332.00,586.00 325.00,586.00 325.00,586.00
             327.86,595.88 331.98,609.93 332.00,620.00
             332.00,620.00 332.00,704.00 332.00,704.00
             332.01,709.17 332.48,716.24 334.53,721.00
             338.51,730.24 348.88,739.90 359.00,741.84
             359.00,741.84 373.00,741.84 373.00,741.84
             379.89,741.97 380.66,741.52 387.00,739.00
             392.15,749.55 407.22,768.76 415.13,778.00
             417.45,780.71 423.46,788.80 427.00,788.80
             430.70,788.80 436.74,780.74 439.15,778.00
             447.33,768.71 462.76,749.74 468.00,739.00
             475.86,743.00 481.41,742.10 490.00,742.00
             502.98,741.84 515.32,732.07 519.87,720.00
             521.68,715.21 521.99,710.06 522.00,705.00
             522.00,705.00 522.00,624.00 522.00,624.00
             522.01,614.90 527.29,595.37 530.00,586.00
             530.00,586.00 522.00,586.00 522.00,586.00
             522.00,586.00 522.00,521.00 522.00,521.00
             522.00,521.00 542.00,521.00 542.00,521.00
             542.00,521.00 544.83,496.00 544.83,496.00
             544.83,496.00 547.00,465.00 547.00,465.00
             547.00,465.00 548.00,448.00 548.00,448.00
             548.00,448.00 548.00,404.00 548.00,404.00
             548.00,404.00 547.00,387.00 547.00,387.00
             547.00,387.00 544.83,357.00 544.83,357.00
             544.83,357.00 543.00,338.00 543.00,338.00
             543.00,338.00 560.36,336.55 560.36,336.55
             560.36,336.55 569.00,336.00 569.00,336.00
             569.00,336.00 593.00,332.83 593.00,332.83
             593.00,332.83 608.00,331.00 608.00,331.00
             608.00,331.00 609.83,355.00 609.83,355.00
             609.83,355.00 611.09,377.00 611.09,377.00
             611.09,377.00 612.00,391.00 612.00,391.00
             612.00,391.00 613.00,408.00 613.00,408.00
             613.00,408.00 613.00,443.00 613.00,443.00
             613.00,443.00 612.00,462.00 612.00,462.00
             612.00,462.00 611.09,472.00 611.09,472.00
             611.09,472.00 608.83,500.00 608.83,500.00
             608.83,500.00 607.00,521.00 607.00,521.00
             607.00,521.00 777.00,521.00 777.00,521.00
             777.00,521.00 781.12,504.00 781.12,504.00
             781.12,504.00 785.73,480.00 785.73,480.00
             789.83,452.13 790.72,402.64 786.25,375.00
             786.25,375.00 779.87,344.00 779.87,344.00
             779.22,341.38 777.83,334.35 776.15,332.60
             774.26,330.63 770.53,331.01 768.00,331.00
             768.00,331.00 662.00,331.00 662.00,331.00
             662.00,331.00 630.00,331.00 630.00,331.00
             623.90,331.00 616.83,331.66 611.00,330.00
             611.00,330.00 663.00,321.66 663.00,321.66
             671.59,319.86 681.33,319.28 689.00,314.80
             705.57,305.14 712.70,284.58 705.00,267.00
             705.00,267.00 755.00,267.00 755.00,267.00
             750.23,255.93 741.19,240.32 734.68,230.00
             698.52,172.63 647.67,127.93 586.00,99.69
             566.75,90.88 539.63,80.16 519.00,76.00
             519.00,76.00 535.57,103.00 535.57,103.00
             546.25,121.61 556.58,143.07 564.55,163.00
             572.77,183.54 579.52,204.73 585.58,226.00
             585.58,226.00 594.00,257.00 594.00,257.00
             594.00,257.00 565.00,260.71 565.00,260.71
             565.00,260.71 553.09,261.82 553.09,261.82
             553.09,261.82 530.00,264.00 530.00,264.00 Z
           M 420.00,125.42
           C 427.34,124.53 438.11,125.08 445.00,127.71
             460.05,133.46 471.78,142.91 478.32,158.00
             492.61,190.96 472.50,231.04 436.00,235.72
             426.29,236.96 415.15,236.46 406.00,232.71
             376.37,220.58 362.61,186.03 376.12,157.00
             380.96,146.62 387.59,139.76 397.00,133.46
             404.65,128.34 411.13,126.71 420.00,125.42 Z
           M 345.00,327.00
           C 345.00,327.00 312.00,324.00 312.00,324.00
             312.00,324.00 303.50,323.25 303.50,323.25
             303.50,323.25 291.00,322.00 291.00,322.00
             291.00,322.00 280.38,320.88 280.38,320.88
             280.38,320.88 267.00,319.29 267.00,319.29
             267.00,319.29 220.00,312.80 220.00,312.80
             209.95,310.88 181.94,307.16 174.00,303.64
             158.53,296.78 155.71,276.12 167.46,264.47
             173.42,258.56 178.09,257.91 186.00,258.00
             186.00,258.00 225.00,265.20 225.00,265.20
             225.00,265.20 259.00,270.29 259.00,270.29
             259.00,270.29 292.00,275.00 292.00,275.00
             292.00,275.00 313.27,276.73 313.27,276.73
             313.27,276.73 336.00,278.00 336.00,278.00
             336.00,278.00 367.00,280.00 367.00,280.00
             367.00,280.00 396.73,281.09 396.73,281.09
             396.73,281.09 418.00,281.00 418.00,281.00
             418.00,281.00 437.00,281.00 437.00,281.00
             437.00,281.00 458.91,280.55 458.91,280.55
             458.91,280.55 482.18,280.00 482.18,280.00
             482.18,280.00 499.00,279.09 499.00,279.09
             499.00,279.09 524.00,278.00 524.00,278.00
             524.00,278.00 548.73,276.00 548.73,276.00
             548.73,276.00 562.00,275.00 562.00,275.00
             562.00,275.00 571.82,273.82 571.82,273.82
             571.82,273.82 581.00,272.71 581.00,272.71
             581.00,272.71 594.00,270.44 594.00,270.44
             594.00,270.44 615.00,267.70 615.00,267.70
             630.43,265.43 658.49,257.82 672.00,258.00
             686.37,258.19 694.36,269.34 693.98,283.00
             693.85,287.83 692.78,291.00 690.01,295.00
             682.94,305.23 674.11,305.48 663.00,307.61
             663.00,307.61 652.00,309.95 652.00,309.95
             652.00,309.95 611.00,316.71 611.00,316.71
             611.00,316.71 587.00,319.29 587.00,319.29
             587.00,319.29 572.00,321.71 572.00,321.71
             572.00,321.71 562.00,322.29 562.00,322.29
             562.00,322.29 553.82,323.27 553.82,323.27
             553.82,323.27 543.00,324.00 543.00,324.00
             543.00,324.00 509.00,327.00 509.00,327.00
             509.00,327.00 509.00,700.00 509.00,700.00
             508.99,708.46 507.68,717.76 500.91,723.62
             490.89,732.29 473.15,730.48 465.56,719.54
             462.08,714.52 462.01,710.82 462.00,705.00
             462.00,705.00 462.00,533.00 462.00,533.00
             462.00,533.00 392.00,533.00 392.00,533.00
             392.00,533.00 392.00,705.00 392.00,705.00
             391.99,710.20 392.03,714.11 389.10,718.70
             381.70,730.29 363.43,732.58 353.09,723.62
             346.32,717.76 345.01,708.46 345.00,700.00
             345.00,700.00 345.00,327.00 345.00,327.00 Z
           M 406.00,547.00
           C 406.00,547.00 448.00,547.00 448.00,547.00
             448.00,547.00 448.00,586.00 448.00,586.00
             448.00,586.00 406.00,586.00 406.00,586.00
             406.00,586.00 406.00,547.00 406.00,547.00 Z
           M 258.00,586.00
           C 258.00,586.00 100.00,586.00 100.00,586.00
             101.95,592.82 107.65,601.75 111.40,608.00
             111.40,608.00 136.87,646.00 136.87,646.00
             174.96,696.78 214.70,725.01 271.00,752.26
             271.00,752.26 313.00,770.05 313.00,770.05
             319.54,772.49 327.25,775.96 334.00,777.00
             334.00,777.00 322.28,757.00 322.28,757.00
             322.28,757.00 299.31,713.00 299.31,713.00
             281.92,675.13 266.22,626.88 258.00,586.00 Z
           M 754.00,586.00
           C 754.00,586.00 597.00,586.00 597.00,586.00
             589.70,622.27 567.86,686.70 551.74,720.00
             551.74,720.00 532.15,757.00 532.15,757.00
             532.15,757.00 521.00,776.00 521.00,776.00
             533.29,774.10 566.94,759.28 579.00,753.25
             631.67,726.91 672.46,695.72 711.00,651.00
             721.30,639.04 733.83,621.48 742.19,608.00
             746.15,601.62 751.97,593.09 754.00,586.00 Z
           M 521.00,776.00
           C 521.00,776.00 520.00,776.00 520.00,776.00
             520.00,776.00 521.00,777.00 521.00,777.00
             521.00,777.00 521.00,776.00 521.00,776.00 Z
           M 335.00,777.00
           C 335.00,777.00 334.00,777.00 334.00,777.00
             334.00,777.00 335.00,778.00 335.00,778.00
             335.00,778.00 335.00,777.00 335.00,777.00 Z
           M 235.91,325.36" />
</svg>
