<?xml version="1.0" encoding="UTF-8" standalone="no"?>
<!DOCTYPE svg PUBLIC "-//W3C//DTD SVG 20010904//EN"
              "http://www.w3.org/TR/2001/REC-SVG-20010904/DTD/svg10.dtd">

<svg xmlns="http://www.w3.org/2000/svg"
     width="4.75556in" height="4.75556in"
     viewBox="0 0 428 428">
  <defs>
    <linearGradient id="gradient" x1="0" x2="0" y1="0" y2="1">
      <stop stop-color="#180b7b" offset="0%" />
      <stop stop-color="#0178fa" offset="100%" />
    </linearGradient>
  </defs>
  <path id="Selection"
        fill="url(#gradient)" stroke="black" stroke-width="0"
        d="M 194.00,1.21
           C 194.00,1.21 226.00,1.21 226.00,1.21
             249.51,1.04 279.45,8.90 301.00,18.15
             323.65,27.88 346.46,42.67 364.00,60.00
             393.45,89.12 415.20,128.24 423.20,169.00
             427.23,189.57 427.24,205.29 427.00,226.00
             427.00,226.00 426.08,236.00 426.08,236.00
             423.37,269.92 410.29,305.84 391.26,334.00
             369.52,366.15 345.74,385.70 312.00,404.14
             288.99,416.70 251.27,426.96 225.00,427.00
             225.00,427.00 201.00,427.00 201.00,427.00
             181.71,426.77 153.94,420.15 136.00,413.00
             107.54,401.65 79.03,383.47 58.09,361.00
             31.26,332.20 11.44,293.83 4.42,255.00
             0.69,234.33 0.76,219.74 1.00,199.00
             1.23,179.88 7.67,153.90 14.42,136.00
             35.05,81.35 76.91,38.47 131.00,16.45
             154.90,6.73 169.17,4.97 194.00,1.21 Z
           M 215.00,33.00
           C 206.80,36.88 198.32,48.40 193.34,56.00
             180.74,75.27 167.57,111.30 163.00,134.00
             163.00,134.00 182.00,134.00 182.00,134.00
             182.00,134.00 174.98,156.00 174.98,156.00
             174.98,156.00 171.91,166.00 171.91,166.00
             171.91,166.00 157.00,166.00 157.00,166.00
             157.00,166.00 154.00,198.00 154.00,198.00
             154.00,198.00 153.00,225.00 153.00,225.00
             153.00,225.00 145.00,199.00 145.00,199.00
             145.00,199.00 124.00,134.00 124.00,134.00
             125.73,133.94 124.11,133.95 131.11,134.05
             131.50,128.44 131.43,128.86 131.88,127.00
             131.88,127.00 135.88,111.00 135.88,111.00
             140.38,93.88 147.89,74.56 156.31,59.00
             156.31,59.00 168.00,39.00 168.00,39.00
             157.41,40.49 138.73,47.89 129.00,52.75
             95.48,69.51 64.94,99.33 50.00,134.00
             50.00,134.00 62.91,133.91 62.91,133.91
             62.91,133.91 65.67,144.00 65.67,144.00
             65.67,144.00 73.00,166.00 73.00,166.00
             73.00,166.00 47.00,166.00 47.00,166.00
             45.00,166.00 41.33,165.74 39.72,166.99
             37.21,168.95 34.96,182.42 34.59,186.00
             32.11,201.59 32.21,227.45 34.59,243.00
             35.32,246.46 37.28,260.21 39.83,262.13
             46.57,262.09 101.43,262.17 105.00,262.22
             107.24,264.10 108.07,269.22 109.00,272.00
             109.00,272.00 116.00,293.00 116.00,293.00
             116.00,293.00 50.00,293.00 50.00,293.00
             52.52,300.97 62.90,316.02 68.13,323.00
             85.06,345.61 101.92,359.80 127.00,372.74
             127.00,372.74 168.00,390.00 168.00,390.00
             168.00,390.00 158.26,372.00 158.26,372.00
             158.26,372.00 143.00,340.00 143.00,340.00
             154.96,342.91 165.56,340.95 175.00,333.00
             180.71,349.47 191.02,368.08 201.47,382.00
             203.55,384.77 210.70,394.80 214.02,394.80
             217.48,394.80 224.57,384.82 226.79,382.00
             235.38,371.09 249.86,347.35 253.00,334.00
             265.27,341.64 270.57,342.59 285.00,340.00
             285.00,340.00 275.74,361.00 275.74,361.00
             275.74,361.00 260.00,389.00 260.00,389.00
             267.66,387.80 278.71,382.59 286.00,379.42
             313.26,367.57 339.60,347.05 358.20,324.00
             363.89,316.94 375.38,301.30 378.00,293.00
             378.00,293.00 311.00,293.00 311.00,293.00
             311.00,293.00 318.33,272.00 318.33,272.00
             319.19,269.43 319.18,269.00 322.64,261.82
             326.31,261.77 375.45,261.64 389.00,261.55
             390.91,257.91 392.68,246.46 393.41,243.00
             395.79,227.45 395.89,201.59 393.41,186.00
             393.04,182.42 390.79,168.95 388.28,166.99
             386.67,165.74 383.00,166.00 381.00,166.00
             381.00,166.00 354.00,166.00 354.00,166.00
             354.00,166.00 364.00,134.00 364.00,134.00
             364.00,134.00 378.00,134.00 378.00,134.00
             361.11,94.78 326.91,64.06 288.00,47.43
             288.00,47.43 260.00,38.00 260.00,38.00
             260.00,38.00 276.69,69.00 276.69,69.00
             285.64,88.49 293.77,112.96 298.00,134.00
             298.00,134.00 304.00,134.00 304.00,134.00
             304.00,134.00 281.67,201.00 281.67,201.00
             281.67,201.00 275.00,220.00 275.00,220.00
             275.00,220.00 273.91,186.00 273.91,186.00
             273.91,186.00 272.00,166.00 272.00,166.00
             272.00,166.00 255.06,166.16 255.06,166.16
             255.06,166.16 252.02,156.00 252.02,156.00
             252.02,156.00 245.00,134.00 245.00,134.00
             245.00,134.00 266.00,134.00 266.00,134.00
             262.27,106.37 244.70,72.46 228.57,50.00
             228.57,50.00 215.00,33.00 215.00,33.00 Z
           M 213.00,165.00
           C 213.00,165.00 205.02,192.00 205.02,192.00
             205.02,192.00 193.00,231.00 193.00,231.00
             193.00,231.00 178.67,277.00 178.67,277.00
             178.67,277.00 168.14,311.00 168.14,311.00
             165.71,319.35 163.09,326.16 153.00,325.95
             144.55,325.77 142.12,321.10 139.42,314.00
             139.42,314.00 128.67,282.00 128.67,282.00
             128.67,282.00 96.66,187.00 96.66,187.00
             96.66,187.00 78.76,134.00 78.76,134.00
             76.54,125.23 79.52,121.04 88.00,118.44
             90.25,117.75 93.66,116.94 96.00,117.26
             101.41,118.01 103.48,122.41 105.14,127.00
             105.14,127.00 114.67,156.00 114.67,156.00
             114.67,156.00 141.67,238.00 141.67,238.00
             141.67,238.00 155.00,277.00 155.00,277.00
             155.00,277.00 166.28,238.00 166.28,238.00
             166.28,238.00 191.72,154.00 191.72,154.00
             191.72,154.00 198.14,133.00 198.14,133.00
             199.34,128.84 200.84,123.33 204.21,120.43
             206.67,118.31 208.91,118.11 212.00,118.02
             215.93,117.90 219.68,117.81 222.89,120.43
             226.50,123.38 227.34,127.78 228.66,132.00
             228.66,132.00 235.66,155.00 235.66,155.00
             235.66,155.00 259.58,234.00 259.58,234.00
             259.58,234.00 273.00,277.00 273.00,277.00
             273.00,277.00 295.00,210.00 295.00,210.00
             295.00,210.00 309.33,166.00 309.33,166.00
             309.33,166.00 319.67,135.00 319.67,135.00
             320.93,131.21 323.27,123.01 325.65,120.23
             331.31,113.59 348.24,117.76 348.94,127.00
             349.38,132.80 346.82,139.54 345.00,145.00
             345.00,145.00 335.00,174.00 335.00,174.00
             335.00,174.00 300.00,278.00 300.00,278.00
             300.00,278.00 291.00,305.00 291.00,305.00
             289.66,309.03 287.03,317.62 284.79,320.81
             281.58,325.39 275.25,326.93 270.00,325.43
             263.71,323.64 261.57,318.62 259.67,313.00
             259.67,313.00 251.33,286.00 251.33,286.00
             251.33,286.00 226.02,205.00 226.02,205.00
             226.02,205.00 213.00,165.00 213.00,165.00 Z
           M 190.00,293.00
           C 190.00,293.00 196.42,271.00 196.42,271.00
             196.42,271.00 200.51,262.02 200.51,262.02
             200.51,262.02 226.57,262.02 226.57,262.02
             226.57,262.02 230.34,270.00 230.34,270.00
             230.34,270.00 237.00,293.00 237.00,293.00
             237.00,293.00 190.00,293.00 190.00,293.00 Z
           M 315.18,278.36" />
</svg>
